<svg width="80" height="40" viewBox="0 0 128 94" fill="none" xmlns="http://www.w3.org/2000/svg">
<g clipPath="url(#clip0_233_29792)">
<path d="M15.5795 31.3812L23.3408 0.134891C23.36 0.0572188 23.4298 0.00268555 23.5098 0.00268555H75.6333C94.653 2.23562 100.813 7.32927 104.334 23.0937C104.358 23.2023 104.276 23.3088 104.165 23.3088H36.1173C36.1085 23.3088 36.0996 23.3095 36.0909 23.3108C27.6788 24.5938 23.1818 26.4652 15.8517 31.5647C15.7194 31.6567 15.5406 31.5375 15.5795 31.3812Z" fill="#1a56db"/>
<path d="M31.1974 72.3949L41.9412 29.526C41.969 29.4155 41.8822 29.3085 41.7683 29.3098C26.2073 29.4848 17.4189 34.7573 11.0731 49.3129C11.0693 49.3218 11.0661 49.3312 11.0637 49.3406L0.00616162 93.7804C-0.0228884 93.8972 0.0748455 94.0074 0.194553 93.995C15.1455 92.4918 23.7919 87.2996 31.1843 72.4303C31.1899 72.4196 31.1944 72.4073 31.1974 72.3949Z" fill="#1a56db"/>
<path d="M39.9453 66.0467L49.0519 29.4398C49.0712 29.3621 49.1409 29.3076 49.2209 29.3076H71.5295C71.643 29.3076 71.7261 29.4146 71.698 29.5246L62.416 66.1316C62.3964 66.2091 62.3273 66.2631 62.2475 66.2631H40.1144C40.0011 66.2631 39.918 66.1569 39.9453 66.0467Z" fill="#1a56db"/>
<path d="M70.0881 64.3795L78.6885 29.4402C78.7076 29.3623 78.7773 29.3076 78.8576 29.3076H104.169C104.279 29.3076 104.361 29.4111 104.339 29.5188C100.22 49.7401 88.5459 58.1134 70.3174 64.584C70.187 64.6307 70.0549 64.5138 70.0881 64.3795Z" fill="#1a56db"/>
<path d="M127.682 26.613C127.682 31.2527 123.921 35.0139 119.281 35.0139C114.641 35.0139 110.88 31.2527 110.88 26.613C110.88 21.9733 114.641 18.2122 119.281 18.2122C123.921 18.2122 127.682 21.9733 127.682 26.613Z" fill="#1a56db"/>
</g>
<defs>
<clipPath id="clip0_233_29792">
<rect width="127.682" height="94" fill="#1a56db"/>
</clipPath>
</defs>
</svg>
