<svg width="80" height="80" viewBox="0 0 40 40" fill="none" xmlns="http://www.w3.org/2000/svg">
<circle cx="20" cy="20" r="20" fill="#FFB84D"/>
<path d="M30.34 17.33L28.34 16.33C27.97 16.15 27.51 16.29 27.33 16.66C27.14 17.04 27.29 17.49 27.66 17.67L29.25 18.46V23.25L25.5 23.26V13C25.5 11 24.16 10 22.5 10H14.5C12.84 10 11.5 11 11.5 13V29.25H10C9.59 29.25 9.25 29.59 9.25 30C9.25 30.41 9.59 30.75 10 30.75H27C27.41 30.75 27.75 30.41 27.75 30C27.75 29.59 27.41 29.25 27 29.25H25.5V24.76L30 24.75C30.42 24.75 30.75 24.41 30.75 24V18C30.75 17.72 30.59 17.46 30.34 17.33ZM14 14.89C14 13.5 14.85 13 15.89 13H21.12C22.15 13 23 13.5 23 14.89V16.12C23 17.5 22.15 18 21.11 18H15.89C14.85 18 14 17.5 14 16.11V14.89ZM14.5 20.25H17.5C17.91 20.25 18.25 20.59 18.25 21C18.25 21.41 17.91 21.75 17.5 21.75H14.5C14.09 21.75 13.75 21.41 13.75 21C13.75 20.59 14.09 20.25 14.5 20.25Z" fill="white"/>
</svg>
