<svg width="20" height="20" viewBox="0 0 20 20" fill="none" xmlns="http://www.w3.org/2000/svg">
<circle cx="10.3382" cy="9.89712" r="9.66177" fill="#3B46F1"/>
<path d="M10.0308 13.0541L13.8203 9.26467C13.1827 8.99849 12.6037 8.60957 12.1161 8.12005C11.6264 7.63238 11.2373 7.05318 10.971 6.4154L7.18153 10.2049C6.8859 10.5005 6.73783 10.6486 6.61076 10.8115C6.46069 11.0038 6.33201 11.2118 6.227 11.432C6.13836 11.6185 6.07226 11.8173 5.94007 12.2139L5.24223 14.3058C5.21011 14.4016 5.20534 14.5045 5.22847 14.6028C5.25159 14.7012 5.30169 14.7911 5.37312 14.8625C5.44456 14.934 5.53451 14.9841 5.63285 15.0072C5.73119 15.0303 5.83404 15.0256 5.92982 14.9934L8.02182 14.2956C8.4189 14.1634 8.61719 14.0973 8.80369 14.0087C9.024 13.9036 9.23202 13.775 9.42416 13.6249C9.58709 13.4978 9.73517 13.3498 10.0308 13.0541ZM14.8716 8.2133C15.2495 7.83546 15.4617 7.323 15.4617 6.78866C15.4617 6.25432 15.2495 5.74187 14.8716 5.36403C14.4938 4.98619 13.9813 4.77393 13.447 4.77393C12.9127 4.77393 12.4002 4.98619 12.0224 5.36403L11.5679 5.8185L11.5874 5.87537C11.8113 6.5162 12.1778 7.09783 12.6592 7.57643C13.1522 8.07224 13.7541 8.44597 14.4172 8.66777L14.8716 8.2133Z" fill="white"/>
</svg>
